<svg xmlns="http://www.w3.org/2000/svg" viewBox="0 0 400 400" width="400" height="400" fill="none">
  <defs>
    <linearGradient id="body" x1="0" y1="0" x2="0" y2="1">
      <stop offset="0" stop-color="#2b2d3a"/>
      <stop offset="1" stop-color="#17181f"/>
    </linearGradient>
    <linearGradient id="body2" x1="0" y1="0" x2="0" y2="1">
      <stop offset="0" stop-color="#262844"/>
      <stop offset="1" stop-color="#17181f"/>
    </linearGradient>
    <linearGradient id="accent" x1="0" y1="0" x2="1" y2="1">
      <stop offset="0" stop-color="#8b5cf6"/>
      <stop offset="1" stop-color="#22d3ee"/>
    </linearGradient>
    <radialGradient id="hl" cx="0.5" cy="0.32" r="0.75">
      <stop offset="0" stop-color="#ffffff" stop-opacity="0.16"/>
      <stop offset="1" stop-color="#ffffff" stop-opacity="0"/>
    </radialGradient>
  </defs>
    <circle cx="200" cy="150" r="180" fill="url(#hl)" opacity="0.9"/>
    <ellipse cx="200" cy="228" rx="120" ry="16" fill="#000" opacity="0.45"/>
    <path d="M100 210 v-30 a25 25 0 0 1 25 -25 v90 a25 25 0 0 1 -25 -25 z" fill="url(#body)"/>
    <path d="M300 210 v-30 a25 25 0 0 0 -25 -25 v90 a25 25 0 0 0 25 -25 z" fill="url(#body)"/>
    <path d="M125 155 h150 v55 h-150 z" fill="url(#body2)"/>
    <path d="M125 155 h150" stroke="url(#accent)" stroke-width="3"/>
    <rect x="140" y="160" width="120" height="26" rx="13" fill="#0c0d12"/>
    <ellipse cx="125" cy="197" rx="18" ry="14" fill="#101116"/>
    <ellipse cx="275" cy="197" rx="18" ry="14" fill="#101116"/>
  </svg>